<svg width="657.9px" height="120.8px" xmlns="http://www.w3.org/2000/svg" viewBox="-78.9375 14.600000000000001 657.875 120.8" style="background: none" preserveAspectRatio="xMidYMid"><defs><linearGradient id="editing-gradient-gradient" x1="0" x2="1" y1="0.5" y2="0.5" gradientUnits="objectBoundingBox"><stop offset="0" stop-color="#4007ca"></stop><stop offset="1" stop-color="#0888ed"></stop></linearGradient></defs><g><g transform="matrix(1.3,0,0,1.4,-82.8,51.4)"><path d="M 32.3 33.5 L 18.3 33.5 L 26.4 -8.8 L 40.5 -8.8 L 32.3 33.5 Z M 88 34.8 L 88 34.8 L 88 34.8 Q 80.3 34.8 80.3 28.7 L 80.3 28.7 L 80.3 28.7 Q 80.3 26.1 81.4 21 L 81.4 21 L 81.4 21 Q 82.5 15.9 82.9 13.9 L 82.9 13.9 L 82.9 13.9 Q 83.8 9.2 83.8 7.7 L 83.8 7.7 L 83.8 7.7 Q 83.8 4.5 81.4 4.5 L 81.4 4.5 L 81.4 4.5 Q 79.8 4.5 78.2 6.7 L 78.2 6.7 L 78.2 6.7 Q 76.7 8.9 76 13.3 L 76 13.3 L 72 33.5 L 59.5 34.8 L 63 17.3 L 63 17.3 Q 63.6 14.5 64.1 11.2 L 64.1 11.2 L 64.1 11.2 Q 64.6 7.9 64.6 7.4 L 64.6 7.4 L 64.6 7.4 Q 64.6 4.5 62.4 4.5 L 62.4 4.5 L 62.4 4.5 Q 60.9 4.5 59.3 6.7 L 59.3 6.7 L 59.3 6.7 Q 57.7 8.8 56.8 13.3 L 56.8 13.3 L 52.9 33.5 L 40.3 34.8 L 47.1 0.8 L 57.5 -0.4 L 56.4 6 L 56.4 6 Q 58.1 2.6 61.1 1.1 L 61.1 1.1 L 61.1 1.1 Q 64.2 -0.4 69 -0.4 L 69 -0.4 L 69 -0.4 Q 71.8 -0.4 73.6 0.9 L 73.6 0.9 L 73.6 0.9 Q 75.3 2.2 75.9 4.4 L 75.9 4.4 L 75.9 4.4 Q 77 2.2 79.8 0.9 L 79.8 0.9 L 79.8 0.9 Q 82.6 -0.4 86 -0.4 L 86 -0.4 L 86 -0.4 Q 89.4 -0.4 91.1 0.3 L 91.1 0.3 L 91.1 0.3 Q 92.8 1 93.8 2.2 L 93.8 2.2 L 93.8 2.2 Q 95.6 4.5 95.6 8.6 L 95.6 8.6 L 95.6 8.6 Q 95.6 12.6 93.8 21 L 93.8 21 L 93.8 21 Q 92.9 25.1 92.9 26.6 L 92.9 26.6 L 92.9 26.6 Q 92.9 28.1 93.8 29 L 93.8 29 L 93.8 29 Q 94.7 29.9 96 30 L 96 30 L 96 30 Q 95.3 32.2 93.1 33.5 L 93.1 33.5 L 93.1 33.5 Q 90.9 34.8 88 34.8 Z M 103.7 31.6 L 103.7 31.6 L 103.7 31.6 Q 102.2 29.9 101.5 27.3 L 101.5 27.3 L 101.5 27.3 Q 100.8 24.6 100.8 20.4 L 100.8 20.4 L 100.8 20.4 Q 100.8 16.1 102.3 12.2 L 102.3 12.2 L 102.3 12.2 Q 103.8 8.3 106.4 5.4 L 106.4 5.4 L 106.4 5.4 Q 112 -0.4 121 -0.4 L 121 -0.4 L 121 -0.4 Q 124.3 -0.4 126.7 0.6 L 126.7 0.6 L 137.6 -0.4 L 132.9 24.5 L 132.9 24.5 Q 132.7 25.3 132.7 26.7 L 132.7 26.7 L 132.7 26.7 Q 132.7 28.1 133.6 29 L 133.6 29 L 133.6 29 Q 134.4 29.9 135.7 30 L 135.7 30 L 135.7 30 Q 135.1 32.2 132.7 33.5 L 132.7 33.5 L 132.7 33.5 Q 130.4 34.8 127.8 34.8 L 127.8 34.8 L 127.8 34.8 Q 125.1 34.8 123.4 33.8 L 123.4 33.8 L 123.4 33.8 Q 121.6 32.8 121.1 31.1 L 121.1 31.1 L 121.1 31.1 Q 120.1 32.7 117.9 33.7 L 117.9 33.7 L 117.9 33.7 Q 115.7 34.8 112.8 34.8 L 112.8 34.8 L 112.8 34.8 Q 109.9 34.8 107.5 34 L 107.5 34 L 107.5 34 Q 105.2 33.2 103.7 31.6 Z M 117.2 5.6 L 117.2 5.6 L 117.2 5.6 Q 116.4 6.7 115.8 8.7 L 115.8 8.7 L 115.8 8.7 Q 115.2 10.6 114.1 15.8 L 114.1 15.8 L 114.1 15.8 Q 113 21.1 113 24.8 L 113 24.8 L 113 24.8 Q 113 28.5 113.6 29.6 L 113.6 29.6 L 113.6 29.6 Q 114.2 30.7 115.2 30.7 L 115.2 30.7 L 115.2 30.7 Q 117.3 30.7 118.8 28.7 L 118.8 28.7 L 118.8 28.7 Q 120.3 26.8 120.8 23.3 L 120.8 23.3 L 124.2 4.5 L 124.2 4.5 Q 122.9 3.4 121.3 3.4 L 121.3 3.4 L 121.3 3.4 Q 119.8 3.4 118.8 3.9 L 118.8 3.9 L 118.8 3.9 Q 117.9 4.4 117.2 5.6 Z M 145.4 6.7 L 145.4 6.7 L 145.4 6.7 Q 147.5 3.7 150.8 1.6 L 150.8 1.6 L 150.8 1.6 Q 154.1 -0.4 158.2 -0.4 L 158.2 -0.4 L 158.2 -0.4 Q 162.2 -0.4 164.1 0.8 L 164.1 0.8 L 176.7 -0.4 L 172.3 24.1 L 172.3 24.1 Q 170.1 36.7 165.3 41.6 L 165.3 41.6 L 165.3 41.6 Q 160.8 46.3 152 46.3 L 152 46.3 L 152 46.3 Q 145.2 46.3 141.4 44.2 L 141.4 44.2 L 141.4 44.2 Q 137.6 42.1 137.6 38.5 L 137.6 38.5 L 137.6 38.5 Q 137.6 35.9 139.5 34.4 L 139.5 34.4 L 139.5 34.4 Q 141.5 32.9 144.6 32.9 L 144.6 32.9 L 144.6 32.9 Q 147.3 32.9 149.3 34.1 L 149.3 34.1 L 149.3 34.1 Q 150.5 34.8 151.1 35.7 L 151.1 35.7 L 151.1 35.7 Q 149.6 36.9 149.6 39 L 149.6 39 L 149.6 39 Q 149.6 41.8 152.2 41.8 L 152.2 41.8 L 152.2 41.8 Q 156.5 41.8 158.9 31.7 L 158.9 31.7 L 158.9 31.7 Q 159.6 28.9 160.2 26.2 L 160.2 26.2 L 160.2 26.2 Q 157.3 29.7 150.8 29.7 L 150.8 29.7 L 150.8 29.7 Q 146.3 29.7 143.6 27.5 L 143.6 27.5 L 143.6 27.5 Q 141 25.3 141 20.2 L 141 20.2 L 141 20.2 Q 141 17 142.1 13.4 L 142.1 13.4 L 142.1 13.4 Q 143.2 9.8 145.4 6.7 Z M 153.7 20.4 L 153.7 20.4 L 153.7 20.4 Q 153.7 24.8 155.9 24.8 L 155.9 24.8 L 155.9 24.8 Q 157.5 24.8 158.9 23.1 L 158.9 23.1 L 158.9 23.1 Q 160.1 21.8 160.5 19.8 L 160.5 19.8 L 163.8 3.3 L 163.8 3.3 Q 163.5 3.3 163.2 3.1 L 163.2 3.1 L 163.2 3.1 Q 162.5 2.9 161.7 2.9 L 161.7 2.9 L 161.7 2.9 Q 157.8 2.9 155.5 9.3 L 155.5 9.3 L 155.5 9.3 Q 153.7 14.3 153.7 20.4 Z M 205.1 22.7 L 205.1 22.7 L 205.1 22.7 Q 206.7 23.7 206.7 26.1 L 206.7 26.1 L 206.7 26.1 Q 206.7 28.5 205.5 30.1 L 205.5 30.1 L 205.5 30.1 Q 204.2 31.6 202.3 32.6 L 202.3 32.6 L 202.3 32.6 Q 198.2 34.8 193.7 34.8 L 193.7 34.8 L 193.7 34.8 Q 189.3 34.8 186.7 33.8 L 186.7 33.8 L 186.7 33.8 Q 184.1 32.8 182.4 31 L 182.4 31 L 182.4 31 Q 179 27.7 179 21.4 L 179 21.4 L 179 21.4 Q 179 11.8 184.3 5.9 L 184.3 5.9 L 184.3 5.9 Q 189.9 -0.4 199.7 -0.4 L 199.7 -0.4 L 199.7 -0.4 Q 205.8 -0.4 208.8 2.1 L 208.8 2.1 L 208.8 2.1 Q 211 4 211 7.2 L 211 7.2 L 211 7.2 Q 211 18.4 191.6 18.4 L 191.6 18.4 L 191.6 18.4 Q 191.3 20.1 191.3 21.5 L 191.3 21.5 L 191.3 21.5 Q 191.3 24.5 192.6 25.6 L 192.6 25.6 L 192.6 25.6 Q 193.9 26.7 196.4 26.7 L 196.4 26.7 L 196.4 26.7 Q 198.8 26.7 201.4 25.6 L 201.4 25.6 L 201.4 25.6 Q 204 24.5 205.1 22.7 Z M 192 15.7 L 192 15.7 L 192 15.7 Q 196.6 15.7 199.2 12.9 L 199.2 12.9 L 199.2 12.9 Q 201.8 10.2 201.8 5.9 L 201.8 5.9 L 201.8 5.9 Q 201.8 4.4 201.3 3.6 L 201.3 3.6 L 201.3 3.6 Q 200.7 2.8 199.6 2.8 L 199.6 2.8 L 199.6 2.8 Q 198.5 2.8 197.6 3.2 L 197.6 3.2 L 197.6 3.2 Q 196.7 3.7 195.7 5.1 L 195.7 5.1 L 195.7 5.1 Q 193.4 8.3 192 15.7 Z M 232.3 11 L 232.3 11 L 232.3 11 Q 233.2 8.6 233.2 6.6 L 233.2 6.6 L 233.2 6.6 Q 233.2 2.8 230.2 2.8 L 230.2 2.8 L 230.2 2.8 Q 228.6 2.8 227.2 4.3 L 227.2 4.3 L 227.2 4.3 Q 225.9 5.7 225.9 7.5 L 225.9 7.5 L 225.9 7.5 Q 225.9 8.8 227 9.8 L 227 9.8 L 227 9.8 Q 228.4 11.2 232.2 13.5 L 232.2 13.5 L 232.2 13.5 Q 236 15.8 237.4 17.7 L 237.4 17.7 L 237.4 17.7 Q 238.9 19.6 238.9 22.2 L 238.9 22.2 L 238.9 22.2 Q 238.9 24.8 237.6 27.1 L 237.6 27.1 L 237.6 27.1 Q 236.4 29.5 234.1 31.2 L 234.1 31.2 L 234.1 31.2 Q 229.3 34.8 221.6 34.8 L 221.6 34.8 L 221.6 34.8 Q 217.5 34.8 214.3 32.6 L 214.3 32.6 L 214.3 32.6 Q 211.1 30.5 211.1 28 L 211.1 28 L 211.1 28 Q 211.1 25.5 212.9 24 L 212.9 24 L 212.9 24 Q 214.7 22.5 217.4 22.5 L 217.4 22.5 L 217.4 22.5 Q 220.1 22.5 221.8 23.6 L 221.8 23.6 L 221.8 23.6 Q 220.9 25.7 220.9 27.1 L 220.9 27.1 L 220.9 27.1 Q 220.9 31.3 224.5 31.3 L 224.5 31.3 L 224.5 31.3 Q 226.1 31.3 227.1 30.3 L 227.1 30.3 L 227.1 30.3 Q 228.1 29.4 228.1 27.7 L 228.1 27.7 L 228.1 27.7 Q 228.1 24.5 222.6 21 L 222.6 21 L 222.6 21 Q 218.1 18.1 217.1 16.9 L 217.1 16.9 L 217.1 16.9 Q 215.4 14.9 215.4 12.3 L 215.4 12.3 L 215.4 12.3 Q 215.4 9.7 216.6 7.3 L 216.6 7.3 L 216.6 7.3 Q 217.8 4.9 220 3.1 L 220 3.1 L 220 3.1 Q 224.7 -0.4 232.8 -0.4 L 232.8 -0.4 L 232.8 -0.4 Q 237 -0.4 239.5 1.2 L 239.5 1.2 L 239.5 1.2 Q 241.9 2.9 241.9 5.7 L 241.9 5.7 L 241.9 5.7 Q 241.9 8.5 240.2 10.1 L 240.2 10.1 L 240.2 10.1 Q 238.5 11.7 235.5 11.7 L 235.5 11.7 L 235.5 11.7 Q 233.4 11.7 232.3 11 Z M 283.4 12.9 L 296.3 11.7 L 296.3 11.7 Q 291.7 21.8 291.7 33.5 L 291.7 33.5 L 291.7 33.5 Q 290 34.8 287.5 34.8 L 287.5 34.8 L 287.5 34.8 Q 284.9 34.8 283.3 33.6 L 283.3 33.6 L 283.3 33.6 Q 281.7 32.4 281.4 31.2 L 281.4 31.2 L 281.4 31.2 Q 279.8 32.8 277.2 33.8 L 277.2 33.8 L 277.2 33.8 Q 274.6 34.8 271.9 34.8 L 271.9 34.8 L 271.9 34.8 Q 269.1 34.8 266.7 33.9 L 266.7 33.9 L 266.7 33.9 Q 264.3 33 262.5 31 L 262.5 31 L 262.5 31 Q 258.4 26.6 258.4 18.4 L 258.4 18.4 L 258.4 18.4 Q 258.4 5.6 265.2 -2.1 L 265.2 -2.1 L 265.2 -2.1 Q 272.3 -10 284.8 -10 L 284.8 -10 L 284.8 -10 Q 293.4 -10 296.5 -5.6 L 296.5 -5.6 L 296.5 -5.6 Q 297.4 -4.2 297.4 -2.5 L 297.4 -2.5 L 297.4 -2.5 Q 297.4 -0.8 296.7 0.7 L 296.7 0.7 L 296.7 0.7 Q 296 2.1 294.8 3.3 L 294.8 3.3 L 294.8 3.3 Q 292 5.8 288.7 5.8 L 288.7 5.8 L 288.7 5.8 Q 287.3 5.8 286 5.4 L 286 5.4 L 286 5.4 Q 286.3 3.5 286.3 1.2 L 286.3 1.2 L 286.3 1.2 Q 286.3 -1 286.1 -2 L 286.1 -2 L 286.1 -2 Q 286 -3.1 285.6 -3.9 L 285.6 -3.9 L 285.6 -3.9 Q 284.8 -5.6 282.9 -5.6 L 282.9 -5.6 L 282.9 -5.6 Q 281.1 -5.6 279.1 -3.7 L 279.1 -3.7 L 279.1 -3.7 Q 277.1 -1.7 275.5 1.5 L 275.5 1.5 L 275.5 1.5 Q 272 8.6 272 17.3 L 272 17.3 L 272 17.3 Q 272 21.3 273.5 24.1 L 273.5 24.1 L 273.5 24.1 Q 275.2 27.1 278.1 27.1 L 278.1 27.1 L 278.1 27.1 Q 279.1 27.1 280 26.6 L 280 26.6 L 280 26.6 Q 281 26.1 281.4 25.7 L 281.4 25.7 L 283.4 12.9 Z M 302.3 31.6 L 302.3 31.6 L 302.3 31.6 Q 300.8 29.9 300.1 27.3 L 300.1 27.3 L 300.1 27.3 Q 299.4 24.6 299.4 20.4 L 299.4 20.4 L 299.4 20.4 Q 299.4 16.1 300.9 12.2 L 300.9 12.2 L 300.9 12.2 Q 302.4 8.3 305 5.4 L 305 5.4 L 305 5.4 Q 310.5 -0.4 319.6 -0.4 L 319.6 -0.4 L 319.6 -0.4 Q 322.9 -0.4 325.3 0.6 L 325.3 0.6 L 336.2 -0.4 L 331.5 24.5 L 331.5 24.5 Q 331.3 25.3 331.3 26.7 L 331.3 26.7 L 331.3 26.7 Q 331.3 28.1 332.1 29 L 332.1 29 L 332.1 29 Q 333 29.9 334.3 30 L 334.3 30 L 334.3 30 Q 333.6 32.2 331.3 33.5 L 331.3 33.5 L 331.3 33.5 Q 329 34.8 326.4 34.8 L 326.4 34.8 L 326.4 34.8 Q 323.7 34.8 322 33.8 L 322 33.8 L 322 33.8 Q 320.2 32.8 319.7 31.1 L 319.7 31.1 L 319.7 31.1 Q 318.7 32.7 316.5 33.7 L 316.5 33.7 L 316.5 33.7 Q 314.3 34.8 311.4 34.8 L 311.4 34.8 L 311.4 34.8 Q 308.5 34.8 306.1 34 L 306.1 34 L 306.1 34 Q 303.8 33.2 302.3 31.6 Z M 315.8 5.6 L 315.8 5.6 L 315.8 5.6 Q 315 6.7 314.4 8.7 L 314.4 8.7 L 314.4 8.7 Q 313.7 10.6 312.7 15.8 L 312.7 15.8 L 312.7 15.8 Q 311.6 21.1 311.6 24.8 L 311.6 24.8 L 311.6 24.8 Q 311.6 28.5 312.2 29.6 L 312.2 29.6 L 312.2 29.6 Q 312.8 30.7 313.8 30.7 L 313.8 30.7 L 313.8 30.7 Q 315.9 30.7 317.4 28.7 L 317.4 28.7 L 317.4 28.7 Q 318.9 26.8 319.4 23.3 L 319.4 23.3 L 322.8 4.5 L 322.8 4.5 Q 321.5 3.4 319.9 3.4 L 319.9 3.4 L 319.9 3.4 Q 318.4 3.4 317.4 3.9 L 317.4 3.9 L 317.4 3.9 Q 316.5 4.4 315.8 5.6 Z M 355 30 L 355 30 L 355 30 Q 353 34.8 346.6 34.8 L 346.6 34.8 L 346.6 34.8 Q 343.4 34.8 341.4 32.5 L 341.4 32.5 L 341.4 32.5 Q 339.7 30.7 339.7 28.5 L 339.7 28.5 L 339.7 28.5 Q 339.7 23.7 342 13.3 L 342 13.3 L 346.6 -11.3 L 359.6 -12.6 L 353.4 19.8 L 353.4 19.8 Q 352.3 24.5 352.3 26.2 L 352.3 26.2 L 352.3 26.2 Q 352.3 29.8 355 30 Z M 375.7 30 L 375.7 30 L 375.7 30 Q 373.7 34.8 367.4 34.8 L 367.4 34.8 L 367.4 34.8 Q 364.2 34.8 362.1 32.5 L 362.1 32.5 L 362.1 32.5 Q 360.5 30.7 360.5 28.5 L 360.5 28.5 L 360.5 28.5 Q 360.5 23.7 362.7 13.3 L 362.7 13.3 L 367.4 -11.3 L 380.4 -12.6 L 374.2 19.8 L 374.2 19.8 Q 373.1 24.5 373.1 26.2 L 373.1 26.2 L 373.1 26.2 Q 373.1 29.8 375.7 30 Z M 407.1 22.7 L 407.1 22.7 L 407.1 22.7 Q 408.7 23.7 408.7 26.1 L 408.7 26.1 L 408.7 26.1 Q 408.7 28.5 407.4 30.1 L 407.4 30.1 L 407.4 30.1 Q 406.2 31.6 404.2 32.6 L 404.2 32.6 L 404.2 32.6 Q 400.1 34.8 395.7 34.8 L 395.7 34.8 L 395.7 34.8 Q 391.3 34.8 388.7 33.8 L 388.7 33.8 L 388.7 33.8 Q 386.1 32.8 384.4 31 L 384.4 31 L 384.4 31 Q 381 27.7 381 21.4 L 381 21.4 L 381 21.4 Q 381 11.8 386.3 5.9 L 386.3 5.9 L 386.3 5.9 Q 391.9 -0.4 401.7 -0.4 L 401.7 -0.4 L 401.7 -0.4 Q 407.8 -0.4 410.8 2.1 L 410.8 2.1 L 410.8 2.1 Q 413 4 413 7.2 L 413 7.2 L 413 7.2 Q 413 18.4 393.6 18.4 L 393.6 18.4 L 393.6 18.4 Q 393.3 20.1 393.3 21.5 L 393.3 21.5 L 393.3 21.5 Q 393.3 24.5 394.6 25.6 L 394.6 25.6 L 394.6 25.6 Q 395.9 26.7 398.4 26.7 L 398.4 26.7 L 398.4 26.7 Q 400.8 26.7 403.4 25.6 L 403.4 25.6 L 403.4 25.6 Q 406 24.5 407.1 22.7 Z M 394 15.7 L 394 15.7 L 394 15.7 Q 398.5 15.7 401.2 12.9 L 401.2 12.9 L 401.2 12.9 Q 403.8 10.2 403.8 5.9 L 403.8 5.9 L 403.8 5.9 Q 403.8 4.4 403.2 3.6 L 403.2 3.6 L 403.2 3.6 Q 402.7 2.8 401.6 2.8 L 401.6 2.8 L 401.6 2.8 Q 400.5 2.8 399.6 3.2 L 399.6 3.2 L 399.6 3.2 Q 398.7 3.7 397.7 5.1 L 397.7 5.1 L 397.7 5.1 Q 395.3 8.3 394 15.7 Z M 435.2 15.5 L 435.2 15.5 L 435.2 15.5 Q 437.5 11.4 437.5 7.2 L 437.5 7.2 L 437.5 7.2 Q 437.5 4.5 435.5 4.5 L 435.5 4.5 L 435.5 4.5 Q 434 4.5 432.4 7.1 L 432.4 7.1 L 432.4 7.1 Q 430.7 9.7 430.2 13.1 L 430.2 13.1 L 426.9 33.5 L 413.6 34.8 L 420.2 0.8 L 430.7 -0.4 L 429.6 6 L 429.6 6 Q 432.7 -0.4 439.8 -0.4 L 439.8 -0.4 L 439.8 -0.4 Q 443.5 -0.4 445.5 1.5 L 445.5 1.5 L 445.5 1.5 Q 447.5 3.4 447.5 7.3 L 447.5 7.3 L 447.5 7.3 Q 447.5 11.3 444.9 13.8 L 444.9 13.8 L 444.9 13.8 Q 442.3 16.3 437.9 16.3 L 437.9 16.3 L 437.9 16.3 Q 436 16.3 435.2 15.5 Z M 468.9 26.2 L 468.9 26.2 L 468.9 26.2 Q 465.6 29.7 459.5 29.7 L 459.5 29.7 L 459.5 29.7 Q 451.9 29.7 450.3 24.1 L 450.3 24.1 L 450.3 24.1 Q 449.7 22.5 449.7 20.6 L 449.7 20.6 L 449.7 20.6 Q 449.7 18.8 450.1 16.8 L 450.1 16.8 L 453.1 0.8 L 466.1 -0.4 L 462.6 18.2 L 462.6 18.2 Q 462.5 19 462.3 19.9 L 462.3 19.9 L 462.3 19.9 Q 462.1 20.8 462.1 21.7 L 462.1 21.7 L 462.1 21.7 Q 462.1 22.7 462.4 23.3 L 462.4 23.3 L 462.4 23.3 Q 462.7 23.9 463.2 24.3 L 463.2 24.3 L 463.2 24.3 Q 464 24.8 465.3 24.8 L 465.3 24.8 L 465.3 24.8 Q 466.7 24.8 467.9 23.1 L 467.9 23.1 L 467.9 23.1 Q 469.1 21.4 469.6 18.6 L 469.6 18.6 L 473.2 0.8 L 485.8 -0.4 L 481 24.7 L 481 24.7 Q 478.6 37 473.7 41.9 L 473.7 41.9 L 473.7 41.9 Q 471.2 44.4 468 45.3 L 468 45.3 L 468 45.3 Q 464.8 46.3 460.6 46.3 L 460.6 46.3 L 460.6 46.3 Q 453.9 46.3 450.1 44.2 L 450.1 44.2 L 450.1 44.2 Q 446.2 42.1 446.2 38.6 L 446.2 38.6 L 446.2 38.6 Q 446.2 36 448.2 34.5 L 448.2 34.5 L 448.2 34.5 Q 450.2 33 453.3 33 L 453.3 33 L 453.3 33 Q 456 33 458 34.1 L 458 34.1 L 458 34.1 Q 459.2 34.8 459.8 35.7 L 459.8 35.7 L 459.8 35.7 Q 458.3 37 458.3 39.1 L 458.3 39.1 L 458.3 39.1 Q 458.3 41.9 460.9 41.9 L 460.9 41.9 L 460.9 41.9 Q 465.1 41.9 467.5 32.2 L 467.5 32.2 L 467.5 32.2 Q 468.2 29.3 468.9 26.2 Z" fill="url(#editing-gradient-gradient)"></path></g></g><style>text {
  font-size: 64px;
  font-family: Arial Black;
  dominant-baseline: central;
  text-anchor: middle;
}</style></svg>